<svg width="336" height="45" viewBox="0 0 336 45" fill="none" xmlns="http://www.w3.org/2000/svg">
<path d="M5.09934 18.2628L26.7427 12.6691L22.5967 7.52405C22.0633 6.86227 21.5329 5.85109 22.1407 5.25364C22.3319 5.09688 22.567 5.00342 22.8136 4.98667C23.0603 4.96972 23.306 5.03027 23.5168 5.15962C23.9352 5.42549 24.2922 5.7772 24.5648 6.19155L27.6623 10.26C28.4483 11.2922 29.2927 12.3708 30.4903 12.8664C35.9743 15.1434 38.7553 21.2681 43.5984 24.7374C42.7863 25.5099 41.4516 25.0484 40.4479 24.5598L38.2272 23.4759C39.4816 25.2432 40.3263 26.2579 41.5191 27.9668C41.8059 28.9072 42.0436 29.8619 42.2312 30.8269C41.3762 30.3108 40.7746 29.8736 39.6301 29.1451C38.5354 27.8922 37.5191 26.573 36.5865 25.1951L37.4646 28.467C36.7785 28.6461 36.1157 28.1309 35.6415 27.6052C34.6919 26.5549 33.9495 25.3346 33.4533 24.0084C34.1792 23.5842 35.0406 23.8171 35.8478 23.6695C36.5085 24.4601 37.3361 25.4705 37.8814 26.228C38.5105 27.2037 39.2389 28.1115 40.0552 28.9371C40.3011 28.9936 40.5591 28.9573 40.78 28.8352C41.0008 28.7132 41.1687 28.5138 41.2517 28.2756C39.8913 26.1588 39.1537 25.3457 37.5897 23.2762C37.9566 23.2047 38.2877 23.0099 38.5283 22.7239C38.7689 22.438 38.9044 22.0783 38.9123 21.7047C38.7913 20.972 38.291 20.3583 37.5977 20.0924C36.9115 19.8434 36.1771 19.7572 35.4519 19.8403C35.0404 19.7938 34.6756 19.5544 34.4694 19.1953L24.1972 6.32214C23.9594 5.96471 23.6269 5.6805 23.2368 5.50136C22.8333 5.33542 22.3713 5.52226 22.1965 5.92201C22.1064 6.26813 22.3258 6.59077 22.5677 6.88091C26.0021 11.1382 29.8166 15.939 33.2509 20.1962C32.5882 20.2149 31.5106 19.6812 30.9175 19.3821C30.3244 19.0831 29.8864 18.3644 30.1261 17.7442L31.0449 18.0531C30.4096 17.3512 29.6712 16.7492 28.8553 16.269C29.0504 16.672 29.3481 17.0324 29.5161 17.4305C29.6114 17.6333 29.6368 17.8617 29.5881 18.0804C29.5394 18.2988 29.4197 18.4951 29.2475 18.6382C28.8175 18.9275 28.2655 18.6262 27.7818 18.3622C26.6454 17.7886 25.3349 17.6623 24.1097 18.0082C23.7351 18.115 23.2964 18.4836 23.5122 18.804C24.4747 18.1185 25.782 18.15 26.9218 18.4706C28.0616 18.7914 29.1087 19.363 30.2382 19.7026C32.4294 20.3698 34.7837 20.1229 37.0438 20.4818C37.5805 20.5673 38.1838 20.7385 38.4147 21.2302C38.495 21.4556 38.5048 21.7002 38.4432 21.9313C38.3815 22.1624 38.2509 22.3693 38.0689 22.5245C37.6849 22.8262 37.2253 23.0165 36.7406 23.0745C35.2163 23.3495 33.6409 23.1568 32.1233 23.4652C30.1327 23.8614 28.3893 25.0992 26.4096 25.5657C23.8288 26.1734 21.1201 25.4313 18.4765 25.6835C16.2131 25.8913 14.0813 26.8084 11.8854 27.3989C10.5347 27.7637 9.14952 28.001 7.76824 28.2407V28.2407C6.07746 28.5335 4.2896 27.9229 3.582 26.3596C2.27017 23.4614 2.12115 19.2372 5.09934 18.2628ZM37.724 22.415C37.9368 22.4323 37.9319 22.0341 37.7405 21.9592C37.5491 21.8844 37.318 21.9361 37.1027 21.9323C36.8494 21.9141 36.6148 21.7923 36.4547 21.5954C36.2945 21.3985 36.2228 21.144 36.2567 20.8923C36.2855 20.74 36.0197 20.6838 35.9258 20.8105C35.8554 20.9518 35.8501 21.1169 35.9114 21.2624C35.963 21.5889 36.1166 21.8907 36.3502 22.1246C36.6062 22.2867 36.9044 22.3704 37.2073 22.3652L37.724 22.415ZM30.4787 24.7222C30.4327 24.8718 30.4371 25.0324 30.4913 25.179L30.7914 26.44C30.8626 26.9574 31.1035 27.4366 31.4762 27.8024C31.633 27.9226 31.8987 27.9885 32.0133 27.8238C32.0478 27.761 32.0688 27.6916 32.075 27.6203C32.2332 26.3886 32.3898 25.166 32.545 23.9522L30.9541 24.4036C30.7587 24.44 30.5868 24.5552 30.4787 24.7222ZM35.924 24.2002L36.5193 24.9205Z" fill="white"/>
<path opacity="0.8" d="M60.9705 31V7.96H69.8665C71.1571 7.96 72.2825 8.22667 73.2425 8.76C74.2025 9.29333 74.9491 10.0133 75.4825 10.92C76.0158 11.816 76.2825 12.808 76.2825 13.896C76.2825 15.1333 75.9518 16.2373 75.2905 17.208C74.6291 18.168 73.7438 18.8347 72.6345 19.208L72.6025 18.424C74.0958 18.8507 75.2691 19.5973 76.1225 20.664C76.9758 21.7307 77.4025 23.0213 77.4025 24.536C77.4025 25.8693 77.1198 27.0213 76.5545 27.992C75.9891 28.952 75.1945 29.6933 74.1705 30.216C73.1465 30.7387 71.9571 31 70.6025 31H60.9705ZM63.3385 28.744H70.0265C70.9651 28.744 71.8078 28.5787 72.5545 28.248C73.3011 27.9067 73.8878 27.4267 74.3145 26.808C74.7518 26.1893 74.9705 25.4427 74.9705 24.568C74.9705 23.7147 74.7731 22.9467 74.3785 22.264C73.9838 21.5813 73.4451 21.0373 72.7625 20.632C72.0905 20.216 71.3225 20.008 70.4585 20.008H63.3385V28.744ZM63.3385 17.784H69.8505C70.5865 17.784 71.2585 17.6187 71.8665 17.288C72.4745 16.9467 72.9545 16.4827 73.3065 15.896C73.6691 15.3093 73.8505 14.632 73.8505 13.864C73.8505 12.776 73.4718 11.8907 72.7145 11.208C71.9678 10.5253 71.0131 10.184 69.8505 10.184H63.3385V17.784ZM80.4355 31V7.48H82.7875V31H80.4355ZM94.3202 31.48C92.6029 31.48 91.1362 31.0907 89.9202 30.312C88.7042 29.5333 87.7709 28.456 87.1202 27.08C86.4696 25.704 86.1442 24.1253 86.1442 22.344C86.1442 20.5307 86.4749 18.9413 87.1362 17.576C87.7976 16.2107 88.7362 15.1493 89.9522 14.392C91.1789 13.624 92.6349 13.24 94.3202 13.24C96.0482 13.24 97.5202 13.6293 98.7362 14.408C99.9629 15.176 100.896 16.248 101.536 17.624C102.187 18.9893 102.512 20.5627 102.512 22.344C102.512 24.1573 102.187 25.752 101.536 27.128C100.886 28.4933 99.9469 29.56 98.7202 30.328C97.4936 31.096 96.0269 31.48 94.3202 31.48ZM94.3202 29.224C96.2402 29.224 97.6696 28.5893 98.6082 27.32C99.5469 26.04 100.016 24.3813 100.016 22.344C100.016 20.2533 99.5416 18.5893 98.5922 17.352C97.6536 16.1147 96.2296 15.496 94.3202 15.496C93.0296 15.496 91.9629 15.7893 91.1202 16.376C90.2882 16.952 89.6642 17.7573 89.2482 18.792C88.8429 19.816 88.6402 21 88.6402 22.344C88.6402 24.424 89.1202 26.0933 90.0802 27.352C91.0402 28.6 92.4536 29.224 94.3202 29.224ZM112.426 39.16C111.54 39.16 110.666 39.0267 109.802 38.76C108.948 38.504 108.159 38.0933 107.434 37.528C106.708 36.9733 106.1 36.248 105.61 35.352L107.738 34.168C108.218 35.128 108.89 35.816 109.754 36.232C110.628 36.6587 111.519 36.872 112.426 36.872C113.674 36.872 114.682 36.6373 115.45 36.168C116.228 35.7093 116.794 35.0267 117.146 34.12C117.498 33.2133 117.668 32.0827 117.658 30.728V26.12H117.93V13.72H120.026V30.76C120.026 31.2507 120.01 31.72 119.978 32.168C119.956 32.6267 119.908 33.0747 119.834 33.512C119.631 34.8027 119.21 35.864 118.57 36.696C117.94 37.528 117.108 38.1467 116.074 38.552C115.05 38.9573 113.834 39.16 112.426 39.16ZM112.266 31.48C110.655 31.48 109.279 31.08 108.138 30.28C106.996 29.4693 106.122 28.376 105.514 27C104.906 25.624 104.602 24.072 104.602 22.344C104.602 20.6267 104.9 19.08 105.498 17.704C106.106 16.328 106.975 15.24 108.106 14.44C109.236 13.64 110.591 13.24 112.17 13.24C113.791 13.24 115.156 13.6347 116.266 14.424C117.375 15.2133 118.212 16.296 118.778 17.672C119.354 19.0373 119.642 20.5947 119.642 22.344C119.642 24.0613 119.359 25.6133 118.794 27C118.228 28.376 117.396 29.4693 116.298 30.28C115.199 31.08 113.855 31.48 112.266 31.48ZM112.506 29.288C113.732 29.288 114.746 28.9893 115.546 28.392C116.346 27.7947 116.943 26.9733 117.338 25.928C117.732 24.872 117.93 23.6773 117.93 22.344C117.93 20.9893 117.732 19.7947 117.338 18.76C116.943 17.7147 116.346 16.8987 115.546 16.312C114.756 15.7253 113.759 15.432 112.554 15.432C111.316 15.432 110.292 15.736 109.482 16.344C108.671 16.952 108.068 17.7787 107.674 18.824C107.29 19.8693 107.098 21.0427 107.098 22.344C107.098 23.656 107.295 24.84 107.69 25.896C108.095 26.9413 108.698 27.768 109.498 28.376C110.298 28.984 111.3 29.288 112.506 29.288ZM124.019 31V13.72H126.131V17.88L125.715 17.336C125.907 16.824 126.158 16.3547 126.467 15.928C126.777 15.4907 127.113 15.1333 127.475 14.856C127.923 14.4613 128.446 14.1627 129.043 13.96C129.641 13.7467 130.243 13.624 130.851 13.592C131.459 13.5493 132.014 13.592 132.515 13.72V15.928C131.886 15.768 131.198 15.7307 130.451 15.816C129.705 15.9013 129.017 16.2 128.387 16.712C127.811 17.16 127.379 17.6987 127.091 18.328C126.803 18.9467 126.611 19.608 126.515 20.312C126.419 21.0053 126.371 21.6933 126.371 22.376V31H124.019Z" fill="white"/>
</svg>
