<svg width="325" height="38" viewBox="0 0 325 38" fill="none" xmlns="http://www.w3.org/2000/svg">
<g opacity="0.8">
<path d="M2.56 31V7.96H4.912V31H2.56ZM9.22875 31V7.96H11.5968L24.2848 26.84V7.96H26.6528V31H24.2848L11.5968 12.104V31H9.22875ZM36.783 31V10.216H28.735V7.96H47.183V10.216H39.135V31H36.783ZM49.2688 31V7.96H63.6688V10.216H51.6208V18.184H61.7488V20.44H51.6208V28.744H63.6688V31H49.2688ZM67.3588 31V7.96H69.7108V28.744H80.6548V31H67.3588ZM83.2225 31V7.96H85.5745V31H83.2225Z" fill="white"/>
<path d="M99.1233 31.48C97.5019 31.48 96.0406 31.1973 94.7393 30.632C93.4379 30.0667 92.3286 29.2613 91.4113 28.216C90.5046 27.1707 89.8113 25.912 89.3313 24.44C88.8513 22.9573 88.6113 21.304 88.6113 19.48C88.6113 17.0693 89.0273 14.968 89.8593 13.176C90.7019 11.3733 91.9073 9.976 93.4753 8.984C95.0433 7.992 96.9259 7.496 99.1233 7.496C101.577 7.496 103.571 8.072 105.107 9.224C106.654 10.3653 107.731 11.9013 108.339 13.832L105.971 14.408C105.47 13 104.643 11.8747 103.491 11.032C102.35 10.1893 100.926 9.768 99.2193 9.768C97.4166 9.75733 95.9179 10.1627 94.7233 10.984C93.5286 11.7947 92.6273 12.936 92.0193 14.408C91.4219 15.8693 91.1179 17.56 91.1073 19.48C91.0966 21.4 91.3899 23.0907 91.9873 24.552C92.5953 26.0027 93.5019 27.144 94.7073 27.976C95.9126 28.7973 97.4166 29.2133 99.2193 29.224C100.873 29.224 102.238 28.904 103.315 28.264C104.393 27.624 105.209 26.7067 105.763 25.512C106.329 24.3173 106.649 22.904 106.723 21.272H101.411V19.256H109.187C109.219 19.5013 109.235 19.7627 109.235 20.04C109.246 20.3067 109.251 20.4987 109.251 20.616C109.251 22.696 108.878 24.5573 108.131 26.2C107.385 27.832 106.259 29.1227 104.755 30.072C103.262 31.0107 101.385 31.48 99.1233 31.48ZM111.974 31V7.96H126.374V10.216H114.326V18.184H124.454V20.44H114.326V28.744H126.374V31H111.974ZM135.872 31V10.216H127.824V7.96H146.272V10.216H138.224V31H135.872ZM156.357 31.48C154.747 31.48 153.296 31.2133 152.005 30.68C150.725 30.136 149.664 29.368 148.821 28.376C147.989 27.384 147.445 26.2053 147.189 24.84L149.589 24.44C149.973 25.9333 150.784 27.1067 152.021 27.96C153.259 28.8027 154.736 29.224 156.453 29.224C157.584 29.224 158.597 29.048 159.493 28.696C160.389 28.3333 161.093 27.8213 161.605 27.16C162.117 26.4987 162.373 25.7147 162.373 24.808C162.373 24.2107 162.267 23.704 162.053 23.288C161.84 22.8613 161.557 22.5093 161.205 22.232C160.853 21.9547 160.469 21.7253 160.053 21.544C159.637 21.352 159.232 21.1973 158.837 21.08L152.997 19.336C152.293 19.1333 151.643 18.8773 151.045 18.568C150.448 18.248 149.925 17.8693 149.477 17.432C149.04 16.984 148.699 16.4613 148.453 15.864C148.208 15.2667 148.085 14.584 148.085 13.816C148.085 12.5147 148.427 11.3893 149.109 10.44C149.792 9.49067 150.725 8.76 151.909 8.248C153.093 7.736 154.443 7.48533 155.957 7.496C157.493 7.496 158.864 7.768 160.069 8.312C161.285 8.856 162.288 9.63467 163.077 10.648C163.867 11.6507 164.389 12.84 164.645 14.216L162.181 14.664C162.021 13.6613 161.653 12.792 161.077 12.056C160.501 11.32 159.765 10.7547 158.869 10.36C157.984 9.95467 157.008 9.74667 155.941 9.736C154.907 9.736 153.984 9.912 153.173 10.264C152.373 10.6053 151.739 11.0747 151.269 11.672C150.8 12.2693 150.565 12.952 150.565 13.72C150.565 14.4987 150.779 15.1227 151.205 15.592C151.643 16.0613 152.176 16.4293 152.805 16.696C153.445 16.9627 154.064 17.1813 154.661 17.352L159.173 18.68C159.643 18.808 160.192 18.9947 160.821 19.24C161.461 19.4747 162.08 19.816 162.677 20.264C163.285 20.7013 163.787 21.2773 164.181 21.992C164.576 22.7067 164.773 23.6133 164.773 24.712C164.773 25.7787 164.56 26.7333 164.133 27.576C163.717 28.4187 163.125 29.128 162.357 29.704C161.6 30.28 160.709 30.7173 159.685 31.016C158.672 31.3253 157.563 31.48 156.357 31.48Z" fill="#CECECE"/>
</g>
</svg>
