<svg width="70" height="80" viewBox="0 0 70 80" fill="none" xmlns="http://www.w3.org/2000/svg">
<path d="M16.926 79.6749C16.5565 79.6749 16.1951 79.6577 15.8276 79.6465C12.7031 79.5511 9.91357 78.9451 7.45904 77.8295C5.0045 76.7139 3.15496 74.9608 1.91247 72.5692C1.411 71.6068 1.01105 70.6384 0.714638 69.6629C0.355289 68.4732 0.148206 67.2743 0.0954204 66.0664C0.0649671 64.9944 0.0406044 63.8565 0.0243627 62.6525C0.00812089 61.3491 0 59.9696 0 58.5119V23.4571V13.3445V3C0 1.34315 1.34315 0 3 0H10.0415H64.9437C67.4601 0 69.5 2.03991 69.5 4.55627C69.5 7.07262 67.4601 9.11254 64.9437 9.11254H11.1923C10.5567 9.11254 10.0415 9.62777 10.0415 10.2633V58.0338C10.0415 60.1056 10.0577 61.9064 10.0882 63.4362C10.1531 64.967 10.4881 66.2582 11.0931 67.3099C12.2402 69.2863 13.6857 70.2314 16.1727 70.5176C17.0031 70.6019 18.2903 70.6303 19.6404 70.6313C21.4412 70.6323 23.3577 70.5826 24.4601 70.5491L24.4885 70.5156H36.9622C36.9622 70.5156 39.364 70.4242 42.05 70.3481C43.9766 70.2933 46.0495 70.2466 47.4869 70.2466C50.6114 70.2466 53.0497 69.6091 54.8038 68.3341C56.5884 67.0591 57.4817 65.306 57.4817 63.0748C57.4817 61.7674 57.1629 60.7157 56.5254 59.9188C55.9184 59.0905 54.6292 58.3089 52.6518 57.576C51.7382 57.2369 50.6033 56.8603 49.2491 56.4461C47.6716 55.965 45.7937 55.4331 43.6153 54.8504C39.1833 53.7023 35.6609 52.475 33.048 51.1686C30.4655 49.8297 28.616 48.2836 27.5014 46.5305C26.4172 44.745 25.8752 42.5939 25.8752 40.0755C25.8752 36.9509 26.7035 34.2254 28.3622 31.8987C30.0189 29.5721 32.3455 27.7703 35.3421 26.4953C38.3712 25.2203 42.0053 24.7798 46.0536 24.7798H56.5254H64.6995C67.0746 24.7798 69 26.7052 69 29.0803C69 31.4554 67.0746 33.3808 64.6995 33.3808H56.5254H46.0536C43.0245 33.2539 40.5699 33.7635 38.6899 34.9116C37.6281 35.541 36.8668 36.3074 36.4039 37.2098C36.0466 37.9082 35.8679 38.6878 35.8679 39.5496C35.8679 40.2247 35.9897 40.8388 36.2313 41.3931C36.4019 41.7808 36.6313 42.1382 36.9196 42.466C37.2627 42.8386 37.754 43.205 38.3895 43.5644C39.1122 43.9725 40.0258 44.3714 41.1282 44.7612C43.2011 45.4941 46.2606 46.3712 50.3089 47.3914C53.0659 48.1009 55.4616 48.8623 57.4959 49.6743C58.6612 50.1393 59.7088 50.6214 60.6366 51.1209C63.1866 52.4598 65.0036 54.0698 66.0878 55.9498C66.7638 57.0694 67.2349 58.3343 67.5008 59.7453C67.6734 60.666 67.7607 61.6476 67.7607 62.6921C67.7607 67.792 65.8969 71.7936 62.1674 74.6938C58.4704 77.595 53.3522 79.0456 46.819 79.0456C39.7944 79.6749 29.3996 79.6749 29.3996 79.6749H16.926Z" fill="#D9D9D9"/>
</svg>
