<svg width="43" height="69" viewBox="0 0 43 69" fill="none" xmlns="http://www.w3.org/2000/svg">
<path fill-rule="evenodd" clip-rule="evenodd" d="M8.1416 38.8057C7.96387 38.8057 7.79004 38.7974 7.61328 38.792C6.11035 38.7461 4.76855 38.4546 3.58789 37.918C2.40723 37.3813 1.51758 36.5381 0.919922 35.3877C0.678711 34.9248 0.486328 34.459 0.34375 33.9897C0.170898 33.4175 0.0712891 32.8408 0.0458984 32.2598C0.03125 31.7441 0.0195312 31.1968 0.0117188 30.6177C0.00390625 29.9907 0 29.3271 0 28.626V11.7642V6.8999V3C0 1.34315 1.34315 0 3 0H4.83008H23.2793V4.86426H7.83008C6.17322 4.86426 4.83008 6.2074 4.83008 7.86426V28.396C4.83008 29.3926 4.83789 30.2588 4.85254 30.9946C4.88379 31.731 5.04492 32.3521 5.33594 32.8579C5.8877 33.8086 6.58301 34.2632 7.7793 34.4009C8.17871 34.4414 8.79785 34.4551 9.44727 34.4556C10.3135 34.4561 11.2354 34.4321 11.7656 34.416L11.7793 34.3999H17.7793C17.7793 34.3999 18.9346 34.356 20.2266 34.3193C21.1533 34.293 22.1504 34.2705 22.8418 34.2705C24.3447 34.2705 25.5176 33.9639 26.3613 33.3506C27.2197 32.7373 27.6494 31.894 27.6494 30.8208C27.6494 30.1919 27.4961 29.686 27.1895 29.3027C26.8975 28.9043 26.2773 28.5283 25.3262 28.1758C24.8867 28.0127 24.3408 27.8315 23.6895 27.6323C22.9307 27.4009 22.0273 27.145 20.9795 26.8647C18.8477 26.3125 17.1533 25.7222 15.8965 25.0938C14.6543 24.4497 13.7646 23.7061 13.2285 22.8628C12.707 22.0039 12.4463 20.9692 12.4463 19.7578C12.4463 18.2549 12.8447 16.9438 13.6426 15.8247C14.4395 14.7056 15.5586 13.8389 17 13.2256C18.457 12.6123 20.2051 12.4004 22.1523 12.4004H27.1895H38.7798C40.9887 12.4004 42.7793 14.191 42.7793 16.3999V16.5376V68.3999H42.3701H39.7793H38.5635L38.5859 53.3818C38.5859 50.8999 37.1992 49.8965 36.2793 48.8999C35.7324 48.2983 35.0098 48.1714 34.2568 47.9272C33.7432 47.7607 33.1816 47.6777 32.5723 47.6777C32.2207 47.6777 31.8799 47.709 31.5498 47.772C31.0176 47.8735 30.5156 48.0566 30.042 48.3218C29.291 48.7358 28.6777 49.3647 28.2021 50.208C27.7422 51.0361 27.5127 52.0786 27.5127 53.3359L27.4893 68.3999H22.6826L22.7051 53.4741C22.7051 51.6646 22.2451 50.2461 21.3252 49.2188C20.4209 48.1914 19.2012 47.6777 17.668 47.6777C16.8887 47.6777 16.1855 47.8154 15.5596 48.0903C15.2227 48.2388 14.9082 48.4268 14.6152 48.6543C14.3936 48.8271 14.1846 49.0229 13.9883 49.2417C13.0684 50.2847 12.6084 51.6494 12.6084 53.3359V68.3999H7.77832L7.7793 53.3359C7.7793 48.5088 11.3574 44.4292 16.1436 43.8003L16.4854 43.7554C17.3291 43.5186 18.2295 43.3999 19.1865 43.3999C20.9492 43.3999 22.4521 43.7754 23.6943 44.5269C24.8594 45.2173 25.7607 46.1709 26.4004 47.3872C26.7695 46.7959 27.1973 46.2671 27.6816 45.8013C28.209 45.2949 28.8037 44.8623 29.4678 44.5039C30.8018 43.7681 32.2959 43.3999 33.9521 43.3999C35.8711 43.3999 37.4795 43.8115 38.7793 44.6348V17.5376C38.7793 16.9853 38.3316 16.5376 37.7793 16.5376H27.1895H22.1523C20.6953 16.4766 19.5146 16.7217 18.6104 17.2739C18.0996 17.5767 17.7334 17.9453 17.5107 18.3794C17.3389 18.7153 17.2529 19.0903 17.2529 19.5049C17.2529 19.8296 17.3115 20.125 17.4277 20.3916C17.5098 20.5781 17.6201 20.75 17.7588 20.9077C17.9238 21.0869 18.1602 21.2632 18.4658 21.436C18.8135 21.6323 19.2529 21.8242 19.7832 22.0117C20.7803 22.3643 22.252 22.7861 24.1992 23.2769C25.5254 23.6182 26.6777 23.9844 27.6562 24.375C28.2168 24.5986 28.7207 24.8306 29.167 25.0708C30.3936 25.7148 31.2676 26.4893 31.7891 27.3936C32.1143 27.9321 32.3408 28.5405 32.4688 29.2192C32.5518 29.6621 32.5938 30.1343 32.5938 30.6367C32.5938 33.0898 31.6973 35.0146 29.9033 36.4097C28.125 37.8052 25.6631 38.5029 22.5205 38.5029C19.1416 38.8057 14.1416 38.8057 14.1416 38.8057H8.1416Z" fill="#E6EAF5"/>
</svg>
