<svg width="64" height="64" viewBox="0 0 64 64" fill="none" xmlns="http://www.w3.org/2000/svg">
<circle cx="32" cy="32" r="32" fill="white"/>
<path d="M7.73 19.406L13.988 18.398V24.908H21.506V30.116H13.988V37.886C13.988 39.202 14.212 40.252 14.66 41.036C15.136 41.82 16.074 42.212 17.474 42.212C18.146 42.212 18.832 42.156 19.532 42.044C20.26 41.904 20.918 41.722 21.506 41.498L22.388 46.37C21.632 46.678 20.792 46.944 19.868 47.168C18.944 47.392 17.81 47.504 16.466 47.504C14.758 47.504 13.344 47.28 12.224 46.832C11.104 46.356 10.208 45.712 9.536 44.9C8.864 44.06 8.388 43.052 8.108 41.876C7.856 40.7 7.73 39.398 7.73 37.97V19.406ZM38.7401 35.282C38.7401 33.266 38.4741 31.838 37.9421 30.998C37.4381 30.158 36.5561 29.738 35.2961 29.738C34.9041 29.738 34.4981 29.766 34.0781 29.822C33.6581 29.85 33.2521 29.892 32.8601 29.948V47H26.6021V25.664C27.1341 25.524 27.7501 25.384 28.4501 25.244C29.1781 25.076 29.9341 24.936 30.7181 24.824C31.5301 24.684 32.3561 24.586 33.1961 24.53C34.0361 24.446 34.8621 24.404 35.6741 24.404C37.2701 24.404 38.5581 24.614 39.5381 25.034C40.5461 25.426 41.3721 25.902 42.0161 26.462C42.9121 25.818 43.9341 25.314 45.0821 24.95C46.2581 24.586 47.3361 24.404 48.3161 24.404C50.0801 24.404 51.5221 24.656 52.6421 25.16C53.7901 25.636 54.7001 26.322 55.3721 27.218C56.0441 28.114 56.5061 29.178 56.7581 30.41C57.0101 31.642 57.1361 33.014 57.1361 34.526V47H50.8781V35.282C50.8781 33.266 50.6121 31.838 50.0801 30.998C49.5761 30.158 48.6941 29.738 47.4341 29.738C47.0981 29.738 46.6221 29.822 46.0061 29.99C45.4181 30.158 44.9281 30.368 44.5361 30.62C44.7321 31.264 44.8581 31.95 44.9141 32.678C44.9701 33.378 44.9981 34.134 44.9981 34.946V47H38.7401V35.282Z" fill="#252323"/>
</svg>
