<svg width="66" height="64" viewBox="0 0 66 64" fill="none" xmlns="http://www.w3.org/2000/svg">
<rect width="66" height="64" rx="10" fill="#EAEAEA"/>
<path d="M11.34 20.348L16.704 19.484V25.064H23.148V29.528H16.704V36.188C16.704 37.316 16.896 38.216 17.28 38.888C17.688 39.56 18.492 39.896 19.692 39.896C20.268 39.896 20.856 39.848 21.456 39.752C22.08 39.632 22.644 39.476 23.148 39.284L23.904 43.46C23.256 43.724 22.536 43.952 21.744 44.144C20.952 44.336 19.98 44.432 18.828 44.432C17.364 44.432 16.152 44.24 15.192 43.856C14.232 43.448 13.464 42.896 12.888 42.2C12.312 41.48 11.904 40.616 11.664 39.608C11.448 38.6 11.34 37.484 11.34 36.26V20.348ZM37.9201 33.956C37.9201 32.228 37.6921 31.004 37.2361 30.284C36.8041 29.564 36.0481 29.204 34.9681 29.204C34.6321 29.204 34.2841 29.228 33.9241 29.276C33.5641 29.3 33.2161 29.336 32.8801 29.384V44H27.5161V25.712C27.9721 25.592 28.5001 25.472 29.1001 25.352C29.7241 25.208 30.3721 25.088 31.0441 24.992C31.7401 24.872 32.4481 24.788 33.1681 24.74C33.8881 24.668 34.5961 24.632 35.2921 24.632C36.6601 24.632 37.7641 24.812 38.6041 25.172C39.4681 25.508 40.1761 25.916 40.7281 26.396C41.4961 25.844 42.3721 25.412 43.3561 25.1C44.3641 24.788 45.2881 24.632 46.1281 24.632C47.6401 24.632 48.8761 24.848 49.8361 25.28C50.8201 25.688 51.6001 26.276 52.1761 27.044C52.7521 27.812 53.1481 28.724 53.3641 29.78C53.5801 30.836 53.6881 32.012 53.6881 33.308V44H48.3241V33.956C48.3241 32.228 48.0961 31.004 47.6401 30.284C47.2081 29.564 46.4521 29.204 45.3721 29.204C45.0841 29.204 44.6761 29.276 44.1481 29.42C43.6441 29.564 43.2241 29.744 42.8881 29.96C43.0561 30.512 43.1641 31.1 43.2121 31.724C43.2601 32.324 43.2841 32.972 43.2841 33.668V44H37.9201V33.956Z" fill="#252323"/>
</svg>
